<svg width="40" height="40" viewBox="0 0 40 40" fill="none" xmlns="http://www.w3.org/2000/svg">
<path d="M26.6274 22.1273L28.8775 21.5137C29.0409 20.5112 29.0409 19.4889 28.8775 18.4864L26.6274 17.8727C26.5203 17.8432 26.4213 17.7898 26.3378 17.7165C26.2542 17.6433 26.1884 17.5521 26.1451 17.4498C26.1018 17.3474 26.0822 17.2366 26.0878 17.1257C26.0934 17.0147 26.1241 16.9065 26.1774 16.809L27.3229 14.7635C26.7556 13.9508 26.0493 13.2445 25.2365 12.6771L23.191 13.8226L22.8637 13.9044C22.6992 13.9109 22.5372 13.862 22.4038 13.7656C22.2703 13.6692 22.173 13.5308 22.1273 13.3726L21.5137 11.1225C20.5112 10.9592 19.4889 10.9592 18.4864 11.1225L17.8727 13.3726C17.8271 13.5308 17.7298 13.6692 17.5963 13.7656C17.4628 13.862 17.3009 13.9109 17.1363 13.9044L16.809 13.8226L14.7635 12.6771C13.9508 13.2445 13.2445 13.9508 12.6771 14.7635L13.8226 16.809C13.876 16.9065 13.9066 17.0147 13.9122 17.1257C13.9178 17.2366 13.8983 17.3474 13.855 17.4498C13.8117 17.5521 13.7458 17.6433 13.6623 17.7165C13.5787 17.7898 13.4797 17.8432 13.3726 17.8727L11.1225 18.4864C10.9592 19.4889 10.9592 20.5112 11.1225 21.5137L13.3726 22.1273C13.4797 22.1569 13.5787 22.2103 13.6623 22.2835C13.7458 22.3568 13.8117 22.448 13.855 22.5503C13.8983 22.6526 13.9178 22.7634 13.9122 22.8744C13.9066 22.9853 13.876 23.0936 13.8226 23.191L12.6771 25.2365C13.2445 26.0493 13.9508 26.7556 14.7635 27.3229L16.809 26.1774L17.1363 26.0956C17.3009 26.0892 17.4628 26.1381 17.5963 26.2345C17.7298 26.3309 17.8271 26.4692 17.8727 26.6274L18.4864 28.8775C19.4889 29.0409 20.5112 29.0409 21.5137 28.8775L22.1273 26.6274C22.173 26.4692 22.2703 26.3309 22.4038 26.2345C22.5372 26.1381 22.6992 26.0892 22.8637 26.0956L23.191 26.1774L25.2365 27.3229C26.0493 26.7556 26.7556 26.0493 27.3229 25.2365L26.1774 23.191C26.1241 23.0936 26.0934 22.9853 26.0878 22.8744C26.0822 22.7634 26.1018 22.6526 26.1451 22.5503C26.1884 22.448 26.2542 22.3568 26.3378 22.2835C26.4213 22.2103 26.5203 22.1569 26.6274 22.1273ZM20 23.6819C19.2718 23.6819 18.56 23.466 17.9545 23.0614C17.349 22.6568 16.8771 22.0818 16.5984 21.409C16.3197 20.7362 16.2468 19.9959 16.3889 19.2817C16.5309 18.5675 16.8816 17.9114 17.3965 17.3965C17.9114 16.8816 18.5675 16.5309 19.2817 16.3889C19.9959 16.2468 20.7362 16.3197 21.409 16.5984C22.0818 16.8771 22.6568 17.349 23.0614 17.9545C23.466 18.56 23.6819 19.2718 23.6819 20C23.6819 20.9765 23.294 21.913 22.6035 22.6035C21.913 23.294 20.9765 23.6819 20 23.6819Z" fill="white"/>
</svg>
