<svg width="24" height="18" viewBox="0 0 24 18" fill="none" xmlns="http://www.w3.org/2000/svg">
<path d="M0.397813 3.25338L1.70423 2.60017C2.08527 2.39799 2.4041 2.07916 2.60628 1.69812L3.25949 0.391709C3.35281 0.212855 3.62498 0.212855 3.71051 0.391709L4.36372 1.69812C4.56591 2.07916 4.88474 2.39799 5.26577 2.60017L6.57997 3.25338C6.75882 3.3467 6.75882 3.61109 6.57997 3.70441L5.26577 4.35761C4.88474 4.5598 4.56591 4.87863 4.36372 5.25967L3.71051 6.56609C3.6172 6.74494 3.34503 6.74494 3.25949 6.56609L2.60628 5.25967C2.4041 4.87863 2.08527 4.5598 1.70423 4.35761L0.397813 3.70441C0.218958 3.61109 0.218958 3.37002 0.397813 3.25338Z" fill="#D8B9AC"/>
<path d="M23.4156 8.59569L20.3907 10.1121C19.4886 10.5631 18.7421 11.3096 18.2911 12.2117L16.7747 15.2366C16.5492 15.6643 15.9349 15.6643 15.7093 15.2366L14.193 12.2117C13.7419 11.3096 12.9954 10.5631 12.0934 10.1121L9.06838 8.59569C8.61736 8.37017 8.61736 7.73252 9.04505 7.53034L12.0934 6.01396C12.9954 5.56294 13.7419 4.81642 14.193 3.91437L15.7093 0.889388C15.9349 0.461691 16.5492 0.461691 16.7747 0.889388L18.2911 3.91437C18.7421 4.81642 19.4886 5.56294 20.3907 6.01396L23.4156 7.53034C23.8433 7.75585 23.8433 8.37017 23.4156 8.59569Z" fill="#D8B9AC"/>
<path d="M9.82268 14.7467L8.50849 15.4C8.12745 15.6021 7.80862 15.921 7.60644 16.302L6.95323 17.6084C6.85992 17.7873 6.58774 17.7873 6.5022 17.6084L5.849 16.302C5.64681 15.921 5.32798 15.6021 4.94695 15.4L3.64053 14.7467C3.46167 14.6534 3.46167 14.4124 3.64053 14.2957L4.94695 13.6425C5.32798 13.4403 5.64681 13.1215 5.849 12.7405L6.5022 11.434C6.59552 11.2552 6.86769 11.2552 6.95323 11.434L7.60644 12.7405C7.80862 13.1215 8.12745 13.4403 8.50849 13.6425L9.82268 14.2957C10.0015 14.389 10.0015 14.6534 9.82268 14.7467Z" fill="#D8B9AC"/>
</svg>
